<svg xmlns="http://www.w3.org/2000/svg" viewBox="0 0 491.01 491.01"><defs><style>.cls-1{fill:#060b2a;stroke:#2929b8;stroke-miterlimit:10;stroke-width:20px;}.cls-2{fill:#fff;}</style></defs><g id="Capa_2" data-name="Capa 2"><g id="triangular"><rect class="cls-1" x="10" y="10" width="471.01" height="471.01" rx="92.8" transform="translate(491.01 491.01) rotate(180)"/><path class="cls-2" d="M406,199.89l-5.91,179a25.8,25.8,0,0,1-25.36,24.68l-179.24,1a7.85,7.85,0,0,1-7.92-8.14l1.21-36.57a8.61,8.61,0,0,1,8.46-8.23l134.43-.73a17.19,17.19,0,0,0,16.9-16.44L353,200.18a8.61,8.61,0,0,1,8.46-8.23l36.61-.2A7.83,7.83,0,0,1,406,199.89Z"/><path class="cls-2" d="M303.47,94.6l-1.21,36.57a8.58,8.58,0,0,1-8.45,8.22l-134.43.74a17.2,17.2,0,0,0-16.91,16.45L138,290.83a8.61,8.61,0,0,1-8.46,8.23l-36.62.2A7.85,7.85,0,0,1,85,291.12l5.92-179a25.8,25.8,0,0,1,25.36-24.68l179.23-1A7.84,7.84,0,0,1,303.47,94.6Z"/><path class="cls-2" d="M300,200.47,298.77,237a8.61,8.61,0,0,1-8.46,8.23l-89.61.49a7.84,7.84,0,0,1-7.92-8.14L194,201a8.59,8.59,0,0,1,8.45-8.22l89.61-.49A7.83,7.83,0,0,1,300,200.47Z"/></g></g></svg>